P2
10 10
15
0 0 0 0 15 0 0 0 0 0
0 0 0 15 15 0 0 0 0 0
0 0 0 0 15 0 0 0 0 0
0 0 0 0 15 0 0 0 0 0
0 0 0 0 15 0 0 0 0 0
0 0 0 0 15 0 0 0 0 0
0 0 0 0 15 0 0 0 0 0
0 0 0 0 15 0 0 0 0 0
0 0 0 0 15 0 0 0 0 0
0 0 0 15 15 15 0 0 0 0